<svg xmlns="http://www.w3.org/2000/svg" viewBox="0 0 64 64"><path d="M18.231 26.808c0 3.558 1.266 6.72 4.234 7.902.489.193.925.005 1.066-.52.098-.363.331-1.28.434-1.658.143-.52.088-.702-.307-1.155-.854-.98-1.402-2.253-1.402-4.052 0-5.227 4.019-9.906 10.465-9.906 5.708 0 8.844 3.394 8.844 7.925 0 5.964-2.711 11.348-6.738 11.348-2.224 0-3.888-2.141-3.357-4.335.642-2.621 2.162-5.448 2.162-7.34 0-1.691-1.044-2.725-3.149-2.725-2.622 0-4.013 1.91-4.013 4.976 0 1.948.59 3.27.59 3.27s-2.528 9.552-2.732 11.268c-.42 3.51-.124 7.444-.066 7.858.036.245.36.303.505.118.211-.265 2.915-3.518 3.839-6.766.26-.92 1.494-5.684 1.494-5.684.74 1.369 2.896 2.96 5.193 2.96 6.831 0 11.361-6.445 11.361-14.556 0-6.133-5.232-11.845-13.349-11.845-10.097 0-15.074 7.044-15.074 12.917z" fill="currentColor" fill-rule="nonzero"/></svg>