<svg xmlns="http://www.w3.org/2000/svg" viewBox="0 0 64 64"><path d="M24.472 13.984c-5.219 0-9.489 4.36-9.489 9.69v16.618c0 5.33 4.27 9.692 9.489 9.692h17.024c5.218 0 9.487-4.361 9.487-9.692V23.675c0-5.331-4.269-9.691-9.487-9.691H24.472zm-6.265 26.068V23.915c0-3.691 2.954-6.71 6.568-6.71h16.417c3.613 0 6.57 3.019 6.57 6.71v16.137c0 3.69-2.957 6.708-6.57 6.708H24.775c-3.614 0-6.568-3.018-6.568-6.708zm22.268-17.808c0 1.154.916 2.088 2.044 2.088 1.129 0 2.044-.934 2.044-2.088 0-1.153-.915-2.087-2.044-2.087-1.128 0-2.044.934-2.044 2.087zm-16.544 9.742c0 5.104 4.052 9.243 9.05 9.243 5 0 9.05-4.14 9.05-9.243 0-5.106-4.051-9.246-9.05-9.246-4.998 0-9.05 4.14-9.05 9.246zm3.211 0c0-3.294 2.614-5.965 5.839-5.965 3.226 0 5.84 2.67 5.84 5.965 0 3.294-2.614 5.963-5.84 5.963-3.225 0-5.839-2.67-5.839-5.963z" fill="currentColor" fill-rule="nonzero"/></svg>