<?xml version="1.0" encoding="utf-8"?>
<!-- Generator: Adobe Illustrator 24.0.1, SVG Export Plug-In . SVG Version: 6.00 Build 0)  -->
<svg version="1.1" id="Layer_1" xmlns="http://www.w3.org/2000/svg" xmlns:xlink="http://www.w3.org/1999/xlink" x="0px" y="0px"
	 viewBox="0 0 24.5 24.9" style="enable-background:new 0 0 24.5 24.9;" xml:space="preserve">
<style type="text/css">
	.st0{fill:#FF6600;}
</style>
	<g transform="matrix(0.995, 0.105, -0.105, 0.995, -472.108, -292.05)">
	<path class="st0" d="M511.6,244.7c-0.3-0.7-0.7-1.2-1.2-1.7c-0.5-0.5-1.1-0.9-1.7-1.2l0,0c-2-0.9-4.4-0.4-5.9,1.2
		c-0.5,0.5-0.9,1.1-1.2,1.7c-0.5,1.3-0.5,2.8,0,4.1c0.3,0.7,0.7,1.2,1.2,1.7c2.1,2.1,5.5,2.1,7.7,0c0,0,0,0,0,0
		c0.5-0.5,0.9-1.1,1.2-1.7C512.1,247.5,512.2,246,511.6,244.7z M508.3,248.3c-0.9,1-2.4,1-3.4,0.1c-1-0.9-1-2.4-0.1-3.4l0,0
		c0.4-0.5,1.1-0.7,1.7-0.7c1.3,0,2.4,1.1,2.4,2.4C509,247.3,508.8,247.9,508.3,248.3L508.3,248.3z"/>
		<path class="st0" d="M517.4,240.6l-13,23.2h3.7l13-23.2H517.4z"/>
		<path class="st0" d="M525.4,255.5c-0.3-0.7-0.7-1.2-1.2-1.7c-2.1-2.1-5.5-2.1-7.7,0c0,0,0,0,0,0c-0.5,0.5-0.9,1.1-1.2,1.7
		c-0.5,1.3-0.5,2.8,0,4.1c0.3,0.7,0.7,1.2,1.2,1.7c2.1,2.1,5.5,2.1,7.7,0c0,0,0,0,0,0c0.5-0.5,0.9-1.1,1.2-1.7
		C525.9,258.3,525.9,256.9,525.4,255.5z M522.1,259.2c-0.9,1-2.4,1-3.4,0.1s-1-2.4-0.1-3.4l0,0c0.4-0.5,1.1-0.7,1.7-0.7
		c1.3,0,2.4,1.1,2.4,2.4C522.8,258.2,522.6,258.8,522.1,259.2L522.1,259.2z"/>
</g>
</svg>