<svg xmlns="http://www.w3.org/2000/svg" viewBox="0 0 64 64"><path d="M49.007 17.558a14.544 14.544 0 0 1-4.693 1.846A7.265 7.265 0 0 0 38.924 17c-4.077 0-7.384 3.41-7.384 7.614 0 .596.064 1.176.191 1.734-6.139-.318-11.58-3.347-15.225-7.958a7.787 7.787 0 0 0-.999 3.832c0 2.64 1.304 4.97 3.286 6.337a7.243 7.243 0 0 1-3.348-.95v.095c0 3.69 2.547 6.767 5.927 7.464a6.982 6.982 0 0 1-1.946.268 7.16 7.16 0 0 1-1.39-.135c.941 3.024 3.666 5.226 6.9 5.285-2.528 2.043-5.715 3.26-9.174 3.26-.596 0-1.185-.034-1.762-.104 3.27 2.157 7.153 3.419 11.321 3.419 13.588 0 21.014-11.601 21.014-21.664 0-.33-.006-.661-.018-.985A15.232 15.232 0 0 0 50 20.57a14.396 14.396 0 0 1-4.24 1.198 7.591 7.591 0 0 0 3.247-4.211" fill="currentColor" fill-rule="nonzero"/></svg>